<?xml version="1.0" encoding="UTF-8"?>
<svg width="199px" height="25px" viewBox="0 0 199 25" version="1.1" xmlns="http://www.w3.org/2000/svg" xmlns:xlink="http://www.w3.org/1999/xlink">
    <!-- Generator: Sketch 44.1 (41455) - http://www.bohemiancoding.com/sketch -->
    <title>logo</title>
    <desc>Created with Sketch.</desc>
    <defs></defs>
    <g id="Page-1" stroke="none" stroke-width="1" fill="none" fill-rule="evenodd">
        <g id="scheme-4" transform="translate(-314.000000, -27.000000)">
            <g id="header">
                <g id="logo" transform="translate(314.000000, 25.000000)">
                    <text id="ON-PRODUCT" font-family="ETradeFort-Light, ETrade Fort" font-size="17" font-weight="300" fill="#67A53E">
                        <tspan x="86" y="23">ON PRODUCT</tspan>
                    </text>
                    <text id="MARK" font-family="ETradeFort-Medium, ETrade Fort" font-size="24" font-weight="400" fill="#FFFFFF">
                        <tspan x="2" y="23">MARK</tspan>
                    </text>
                    <g id="corners" transform="translate(0.000000, 2.000000)" fill="#67A43E">
                        <g id="top">
                            <g id="tr" transform="translate(72.000000, 5.000000) scale(-1, 1) translate(-72.000000, -5.000000) translate(67.000000, 0.000000)">
                                <rect id="Rectangle" x="0" y="0" width="10" height="2"></rect>
                                <rect id="Rectangle-Copy" transform="translate(1.000000, 5.000000) rotate(90.000000) translate(-1.000000, -5.000000) " x="-4" y="4" width="10" height="2"></rect>
                            </g>
                            <g id="tl">
                                <rect id="Rectangle" x="0" y="0" width="10" height="2"></rect>
                                <rect id="Rectangle-Copy" transform="translate(1.000000, 5.000000) rotate(90.000000) translate(-1.000000, -5.000000) " x="-4" y="4" width="10" height="2"></rect>
                            </g>
                        </g>
                        <g id="bottom" transform="translate(0.000000, 15.000000)">
                            <g id="br" transform="translate(72.000000, 5.000000) scale(-1, -1) translate(-72.000000, -5.000000) translate(67.000000, 0.000000)">
                                <rect id="Rectangle" x="0" y="0" width="10" height="2"></rect>
                                <rect id="Rectangle-Copy" transform="translate(1.000000, 5.000000) rotate(90.000000) translate(-1.000000, -5.000000) " x="-4" y="4" width="10" height="2"></rect>
                            </g>
                            <g id="bl" transform="translate(5.000000, 5.000000) scale(1, -1) translate(-5.000000, -5.000000) ">
                                <rect id="Rectangle" x="0" y="0" width="10" height="2"></rect>
                                <rect id="Rectangle-Copy" transform="translate(1.000000, 5.000000) rotate(90.000000) translate(-1.000000, -5.000000) " x="-4" y="4" width="10" height="2"></rect>
                            </g>
                        </g>
                    </g>
                </g>
            </g>
        </g>
    </g>
</svg>