<?xml version="1.0" encoding="UTF-8"?>
<svg width="20px" height="20px" viewBox="0 0 20 20" version="1.1" xmlns="http://www.w3.org/2000/svg" xmlns:xlink="http://www.w3.org/1999/xlink">
    <!-- Generator: Sketch 44.1 (41455) - http://www.bohemiancoding.com/sketch -->
    <title>Shape</title>
    <desc>Created with Sketch.</desc>
    <defs></defs>
    <g id="Page-1" stroke="none" stroke-width="1" fill="none" fill-rule="evenodd">
        <g id="Artboard" transform="translate(-659.000000, -1115.000000)" fill-rule="nonzero" fill="#272727">
            <g id="linkedin" transform="translate(646.000000, 1102.000000)">
                <path d="M32.1688839,32.1398621 L28.2018302,32.1398621 L28.2018302,25.9236206 C28.2018302,24.4412776 28.1716922,22.5336538 26.1345866,22.5336538 C24.0662269,22.5336538 23.750336,24.1465949 23.750336,25.8142309 L23.750336,32.1398621 L19.7832823,32.1398621 L19.7832823,19.3568854 L23.5940649,19.3568854 L23.5940649,21.0993083 L23.6454111,21.0993083 C24.1778491,20.0947083 25.4726669,19.0342972 27.4070799,19.0342972 C31.4265961,19.0342972 32.1700001,21.6797438 32.1700001,25.1232893 L32.1700001,32.1398621 L32.1688839,32.1398621 Z M15.3027664,17.6077652 C14.0258082,17.6077652 13,16.5741435 13,15.3027664 C13,14.0325055 14.0269244,13 15.3027664,13 C16.5752597,13 17.606649,14.0325055 17.606649,15.3027664 C17.606649,16.5741435 16.5741435,17.6077652 15.3027664,17.6077652 Z M17.2918744,32.1398621 L13.3136584,32.1398621 L13.3136584,19.3568854 L17.2918744,19.3568854 L17.2918744,32.1398621 Z" id="Shape"></path>
            </g>
        </g>
    </g>
</svg>