<?xml version="1.0" encoding="UTF-8"?>
<svg width="31px" height="24px" viewBox="0 0 31 24" version="1.1" xmlns="http://www.w3.org/2000/svg" xmlns:xlink="http://www.w3.org/1999/xlink">
    <!-- Generator: Sketch 44.1 (41455) - http://www.bohemiancoding.com/sketch -->
    <title>Github__x28_alt_x29_</title>
    <desc>Created with Sketch.</desc>
    <defs></defs>
    <g id="Page-1" stroke="none" stroke-width="1" fill="none" fill-rule="evenodd">
        <g id="Artboard" transform="translate(-726.000000, -1113.000000)" fill-rule="nonzero" fill="#272727">
            <g id="github" transform="translate(719.000000, 1102.000000)">
                <path d="M29.6331,11 C30.0361,11.9151889 30.2971889,13.4352222 29.9076222,14.5481222 C31.5006778,15.9083333 32.0483444,19.215 31.2792,21.9171667 C33.5497778,22.0904222 36.2543556,21.8338111 38,22.5306222 C36.3680222,22.3208556 34.1391222,21.9092444 32.0342222,22.0525333 C31.6353556,22.0797444 31.0446333,22.0373778 31.0735667,22.5984778 C33.5101667,22.7896444 35.9316111,22.9980333 37.9321444,23.6225111 C35.9478,23.2983889 33.5391,22.8044556 31.0735667,22.7359111 C30.0550444,24.7457444 28.0052556,25.7336111 25.1756444,25.9416556 C25.4797889,26.6036778 26.0622444,26.8554667 26.2045,27.9201444 C26.4166778,29.5107889 25.8724556,31.8402667 26.4094444,32.9004667 C26.6670889,33.4085222 27.0869667,33.4219556 27.3701,33.8563 C26.6770778,34.6764222 24.9589889,33.7639889 24.7633444,32.9004667 C24.4282,31.4210778 25.2738111,29.1277667 24.3527667,28.1247444 C24.4175222,29.7384667 23.9711222,32.0045667 24.4213111,33.4460667 C24.5987,34.0130222 25.1108889,34.2317444 24.9700111,34.7432444 C21.7487667,35.0701222 23.0952,30.5740889 22.5685444,27.9198 C22.0825333,27.9545889 22.2960889,28.6476111 22.2943667,28.9434889 C22.2805889,31.5350889 22.8248111,35.0897556 20.0313667,34.7432444 C19.9497333,34.1983333 20.4061222,34.0133667 20.5800667,33.5159889 C21.0895,32.0579556 20.4846556,29.8848556 20.7181889,28.1250889 C19.6521333,28.9290222 20.8301333,31.7348667 20.1694889,33.1736111 C19.7888778,34.0016556 18.5623111,34.3619444 17.6319667,33.9923556 C17.7532111,33.3758 18.3897444,33.4753444 18.6597889,32.9008111 C19.0373,32.1003222 18.6625444,30.9464333 18.7972222,29.7625778 C16.8239,30.1566222 15.2931889,29.7054 14.5440222,28.4660889 C14.2088778,27.9098111 14.1258667,27.2536444 13.7208,26.7607444 C13.3178,26.2675 12.6736889,26.2010222 12.487,25.5334889 C14.9308333,24.9451778 15.0245222,28.0486222 17.2193222,28.1250889 C17.8923667,28.1495444 18.2423222,27.9311667 18.8650778,27.7847778 C19.0393667,27.0022 19.4124,26.4183667 19.9624778,26.0098556 C17.2313778,25.6361333 14.9759556,24.7857 13.9271222,22.7362556 C11.4443667,22.8581889 9.17241111,23.1898889 7.0682,23.6907111 C8.97814444,22.997 11.3338,22.7483111 13.8589222,22.6666778 C13.7101222,21.7725 12.4057111,22.0184333 11.5959222,22.0528778 C10.0907,22.1190111 8.19625556,22.3060444 7,22.5306222 C8.73393333,21.9123444 11.1670889,21.9895 13.5162,21.9846778 C12.7976889,19.7320111 13.0467222,16.1535778 14.6136,14.8209222 C14.1696111,13.7018222 14.3073889,11.8714444 14.8877778,11 C16.6372111,11.0785333 17.6981,11.8414778 18.7972222,12.5696333 C20.1601889,12.1821333 21.5934222,11.9892444 23.461,12.0918889 C24.2463333,12.1352889 25.0630111,12.4883444 25.6547667,12.4325444 C26.2351556,12.3781222 26.8747889,11.7267778 27.4383,11.4780889 C28.1723111,11.1539667 28.7933444,11.0303111 29.6331,11 Z" id="Github__x28_alt_x29_"></path>
            </g>
        </g>
    </g>
</svg>