<?xml version="1.0" encoding="UTF-8"?>
<svg width="24px" height="20px" viewBox="0 0 24 20" version="1.1" xmlns="http://www.w3.org/2000/svg" xmlns:xlink="http://www.w3.org/1999/xlink">
    <!-- Generator: Sketch 44.1 (41455) - http://www.bohemiancoding.com/sketch -->
    <title>Shape</title>
    <desc>Created with Sketch.</desc>
    <defs></defs>
    <g id="Page-1" stroke="none" stroke-width="1" fill="none" fill-rule="evenodd">
        <g id="Artboard" transform="translate(-584.000000, -1115.000000)" fill-rule="nonzero" fill="#272727">
            <g id="twitter" transform="translate(574.000000, 1102.000000)">
                <path d="M33.954,15.323 C33.069,15.712 32.124,15.977 31.129,16.098 C32.143,15.487 32.923,14.524 33.292,13.375 C32.341,13.93 31.287,14.334 30.165,14.559 C29.269,13.6 27.992,13 26.574,13 C23.857,13 21.654,15.203 21.654,17.917 C21.654,18.307 21.699,18.682 21.781,19.041 C17.691,18.848 14.066,16.884 11.64,13.915 C11.213,14.637 10.974,15.476 10.974,16.39 C10.974,18.1 11.844,19.603 13.162,20.486 C12.355,20.46 11.596,20.238 10.934,19.87 L10.934,19.931 C10.934,22.316 12.627,24.305 14.88,24.758 C14.467,24.869 14.031,24.929 13.584,24.929 C13.27,24.929 12.969,24.899 12.668,24.843 C13.299,26.796 15.113,28.22 17.272,28.26 C15.592,29.579 13.463,30.365 11.17,30.365 C10.78,30.365 10.391,30.342 10,30.298 C12.189,31.692 14.768,32.507 17.557,32.507 C26.611,32.507 31.556,25.011 31.556,18.521 C31.556,18.312 31.556,18.101 31.541,17.891 C32.502,17.202 33.341,16.331 34.001,15.343 L33.954,15.323 Z" id="Shape"></path>
            </g>
        </g>
    </g>
</svg>